<?xml version="1.0" encoding="utf-8"?>
<!-- Generator: Adobe Illustrator 23.0.4, SVG Export Plug-In . SVG Version: 6.00 Build 0)  -->
<svg version="1.1" id="Calque_1" xmlns="http://www.w3.org/2000/svg" xmlns:xlink="http://www.w3.org/1999/xlink" x="0px" y="0px"
	 viewBox="0 0 2834.65 2834.65" style="enable-background:new 0 0 2834.65 2834.65;" xml:space="preserve">
<style type="text/css">
	.st0{fill:none;stroke:#000000;stroke-width:55;stroke-linecap:round;stroke-miterlimit:10;}
	.st1{fill:none;stroke:#010080;stroke-width:55;stroke-linecap:round;stroke-miterlimit:10;}
	.st2{fill:none;stroke:#282974;stroke-width:55;stroke-linecap:round;stroke-miterlimit:10;}
	.st3{fill:#010080;stroke:#010080;stroke-miterlimit:10;}
</style>
<g>
	<path class="st0" d="M1039.66,1895.84"/>
	<path class="st1" d="M1834.29,989.78C1725.7,884.56,1577.67,819.8,1414.52,819.8c-333.2,0-603.3,270.11-603.3,603.3
		c0,139.42,47.29,267.79,126.7,369.95"/>
	<path class="st2" d="M1839.85,1850.96"/>
	<path class="st1" d="M1039.66,1895.84c102.94,81.74,233.2,130.56,374.86,130.56c163.71,0,312.19-65.21,420.88-171.06"/>
	<path class="st1" d="M1154.91,1260.17c-29.68,47.2-46.85,103.06-46.85,162.93c0,169.26,137.21,306.47,306.47,306.47
		c85.65,0,163.1-35.14,218.71-91.79"/>
	<path class="st0" d="M1154.91,1260.17"/>
	<path class="st1" d="M1632.06,1207.24c-55.52-55.95-132.49-90.6-217.54-90.6c-60.62,0-117.14,17.6-164.71,47.98"/>
	<circle class="st3" cx="1414.52" cy="1423.1" r="147.98"/>
</g>
</svg>
