<?xml version="1.0" encoding="UTF-8"?>
<svg id="Calque_1" xmlns="http://www.w3.org/2000/svg" xmlns:xlink="http://www.w3.org/1999/xlink" version="1.1" viewBox="0 0 238.4 77.5">
  <!-- Generator: Adobe Illustrator 29.0.0, SVG Export Plug-In . SVG Version: 2.1.0 Build 186)  -->
  <defs>
    <style>
      .st0, .st1 {
        fill: none;
      }

      .st2 {
        fill: url(#Dégradé_sans_nom);
      }

      .st3, .st4 {
        fill: #f6f5f5;
      }

      .st5 {
        fill: #282e69;
      }

      .st6 {
        clip-path: url(#clippath);
      }

      .st1 {
        stroke-linecap: round;
        stroke-width: 2px;
      }

      .st1, .st7 {
        stroke: #fff;
        stroke-miterlimit: 10;
      }

      .st7 {
        fill: #fff;
        stroke-width: 0px;
      }

      .st4 {
        isolation: isolate;
      }
    </style>
    <clipPath id="clippath">
      <rect class="st0" x="85.1" y="3.2" width="5.6" height="70.5"/>
    </clipPath>
    <linearGradient id="Dégradé_sans_nom" data-name="Dégradé sans nom" x1="-81348.5" y1="51846.2" x2="-79616.9" y2="53577.9" gradientTransform="translate(-953.1 -1584.4) rotate(-90) scale(0)" gradientUnits="userSpaceOnUse">
      <stop offset="0" stop-color="#373c90"/>
      <stop offset="0" stop-color="#373c90"/>
      <stop offset="0" stop-color="#373c90"/>
      <stop offset="0" stop-color="#373c90"/>
      <stop offset="0" stop-color="#373c90"/>
      <stop offset="0" stop-color="#373d90"/>
      <stop offset="0" stop-color="#373d91"/>
      <stop offset="0" stop-color="#373c90"/>
      <stop offset="0" stop-color="#373d91"/>
      <stop offset="0" stop-color="#383d91"/>
      <stop offset="0" stop-color="#383d91"/>
      <stop offset="0" stop-color="#383d91"/>
      <stop offset="0" stop-color="#383d91"/>
      <stop offset="0" stop-color="#373d91"/>
      <stop offset="0" stop-color="#373d91"/>
      <stop offset="0" stop-color="#373d91"/>
      <stop offset="0" stop-color="#373d91"/>
      <stop offset="0" stop-color="#383d91"/>
      <stop offset="0" stop-color="#383d91"/>
      <stop offset="0" stop-color="#373e91"/>
      <stop offset="0" stop-color="#373e92"/>
      <stop offset="0" stop-color="#373e91"/>
      <stop offset="0" stop-color="#373e92"/>
      <stop offset="0" stop-color="#373e92"/>
      <stop offset="0" stop-color="#383e91"/>
      <stop offset="0" stop-color="#393e92"/>
      <stop offset="0" stop-color="#393e91"/>
      <stop offset=".1" stop-color="#383e92"/>
      <stop offset=".1" stop-color="#383f92"/>
      <stop offset=".1" stop-color="#383f92"/>
      <stop offset=".1" stop-color="#383f92"/>
      <stop offset=".1" stop-color="#393f92"/>
      <stop offset=".1" stop-color="#393f92"/>
      <stop offset=".1" stop-color="#394093"/>
      <stop offset=".1" stop-color="#394093"/>
      <stop offset=".1" stop-color="#394093"/>
      <stop offset=".1" stop-color="#394093"/>
      <stop offset=".1" stop-color="#3a4093"/>
      <stop offset=".2" stop-color="#3a4093"/>
      <stop offset=".2" stop-color="#3a4193"/>
      <stop offset=".2" stop-color="#3a4193"/>
      <stop offset=".2" stop-color="#394194"/>
      <stop offset=".2" stop-color="#394294"/>
      <stop offset=".2" stop-color="#3a4294"/>
      <stop offset=".2" stop-color="#394395"/>
      <stop offset=".2" stop-color="#394294"/>
      <stop offset=".2" stop-color="#3a4395"/>
      <stop offset=".2" stop-color="#3a4395"/>
      <stop offset=".2" stop-color="#3a4395"/>
      <stop offset=".2" stop-color="#3a4395"/>
      <stop offset=".2" stop-color="#3a4495"/>
      <stop offset=".2" stop-color="#3a4495"/>
      <stop offset=".2" stop-color="#3a4596"/>
      <stop offset=".2" stop-color="#3a4596"/>
      <stop offset=".2" stop-color="#3a4597"/>
      <stop offset=".2" stop-color="#3a4697"/>
      <stop offset=".2" stop-color="#3a4697"/>
      <stop offset=".2" stop-color="#3b4797"/>
      <stop offset=".2" stop-color="#3b4898"/>
      <stop offset=".2" stop-color="#3b4898"/>
      <stop offset=".2" stop-color="#3a4899"/>
      <stop offset=".2" stop-color="#3a4999"/>
      <stop offset=".2" stop-color="#3a4999"/>
      <stop offset=".2" stop-color="#3b4a9a"/>
      <stop offset=".2" stop-color="#3b4a9a"/>
      <stop offset=".2" stop-color="#3b4b9a"/>
      <stop offset=".3" stop-color="#3b4c9a"/>
      <stop offset=".3" stop-color="#3b4b9a"/>
      <stop offset=".3" stop-color="#3b4c9a"/>
      <stop offset=".3" stop-color="#3b4d99"/>
      <stop offset=".3" stop-color="#3c4d99"/>
      <stop offset=".3" stop-color="#3c4e99"/>
      <stop offset=".3" stop-color="#3c4f98"/>
      <stop offset=".3" stop-color="#3c4f98"/>
      <stop offset=".3" stop-color="#3c5097"/>
      <stop offset=".3" stop-color="#3c5097"/>
      <stop offset=".3" stop-color="#3d5197"/>
      <stop offset=".3" stop-color="#3c5296"/>
      <stop offset=".3" stop-color="#3c5296"/>
      <stop offset=".3" stop-color="#3c5395"/>
      <stop offset=".3" stop-color="#3d5495"/>
      <stop offset=".3" stop-color="#3d5494"/>
      <stop offset=".3" stop-color="#3d5594"/>
      <stop offset=".3" stop-color="#3e5594"/>
      <stop offset=".3" stop-color="#3f5693"/>
      <stop offset=".3" stop-color="#3f5793"/>
      <stop offset=".3" stop-color="#405791"/>
      <stop offset=".3" stop-color="#405891"/>
      <stop offset=".3" stop-color="#3f5991"/>
      <stop offset=".3" stop-color="#405991"/>
      <stop offset=".3" stop-color="#3f5b91"/>
      <stop offset=".4" stop-color="#3f5b90"/>
      <stop offset=".4" stop-color="#3f5b90"/>
      <stop offset=".4" stop-color="#3e5d90"/>
      <stop offset=".4" stop-color="#3e5d8f"/>
      <stop offset=".4" stop-color="#3f5d8f"/>
      <stop offset=".4" stop-color="#405e8d"/>
      <stop offset=".4" stop-color="#405e8d"/>
      <stop offset=".4" stop-color="#405f8d"/>
      <stop offset=".4" stop-color="#40608d"/>
      <stop offset=".4" stop-color="#40608d"/>
      <stop offset=".4" stop-color="#40618c"/>
      <stop offset=".4" stop-color="#41628c"/>
      <stop offset=".4" stop-color="#41628b"/>
      <stop offset=".4" stop-color="#41638a"/>
      <stop offset=".4" stop-color="#41638a"/>
      <stop offset=".4" stop-color="#416489"/>
      <stop offset=".4" stop-color="#416689"/>
      <stop offset=".4" stop-color="#416689"/>
      <stop offset=".4" stop-color="#426688"/>
      <stop offset=".4" stop-color="#426887"/>
      <stop offset=".4" stop-color="#426887"/>
      <stop offset=".4" stop-color="#426887"/>
      <stop offset=".4" stop-color="#426886"/>
      <stop offset=".5" stop-color="#436986"/>
      <stop offset=".5" stop-color="#436b85"/>
      <stop offset=".5" stop-color="#446a85"/>
      <stop offset=".5" stop-color="#436b85"/>
      <stop offset=".5" stop-color="#436c85"/>
      <stop offset=".5" stop-color="#436c85"/>
      <stop offset=".5" stop-color="#436e84"/>
      <stop offset=".5" stop-color="#446e84"/>
      <stop offset=".5" stop-color="#456f82"/>
      <stop offset=".5" stop-color="#457083"/>
      <stop offset=".5" stop-color="#457083"/>
      <stop offset=".5" stop-color="#457181"/>
      <stop offset=".5" stop-color="#457281"/>
      <stop offset=".5" stop-color="#457280"/>
      <stop offset=".5" stop-color="#457381"/>
      <stop offset=".5" stop-color="#467380"/>
      <stop offset=".5" stop-color="#46737f"/>
      <stop offset=".5" stop-color="#46747f"/>
      <stop offset=".5" stop-color="#46757e"/>
      <stop offset=".5" stop-color="#46757e"/>
      <stop offset=".5" stop-color="#46767e"/>
      <stop offset=".5" stop-color="#46767d"/>
      <stop offset=".5" stop-color="#46777d"/>
      <stop offset=".5" stop-color="#46787c"/>
      <stop offset=".5" stop-color="#46787c"/>
      <stop offset=".5" stop-color="#467a7c"/>
      <stop offset=".6" stop-color="#467b7c"/>
      <stop offset=".6" stop-color="#467b7c"/>
      <stop offset=".6" stop-color="#487c7b"/>
      <stop offset=".6" stop-color="#487c7b"/>
      <stop offset=".6" stop-color="#487d7a"/>
      <stop offset=".6" stop-color="#487d7a"/>
      <stop offset=".6" stop-color="#487d7a"/>
      <stop offset=".6" stop-color="#487e78"/>
      <stop offset=".6" stop-color="#497f78"/>
      <stop offset=".6" stop-color="#487f77"/>
      <stop offset=".6" stop-color="#488077"/>
      <stop offset=".6" stop-color="#488176"/>
      <stop offset=".6" stop-color="#488176"/>
      <stop offset=".6" stop-color="#488276"/>
      <stop offset=".6" stop-color="#488275"/>
      <stop offset=".6" stop-color="#498375"/>
      <stop offset=".6" stop-color="#498474"/>
      <stop offset=".6" stop-color="#498474"/>
      <stop offset=".6" stop-color="#498574"/>
      <stop offset=".6" stop-color="#498673"/>
      <stop offset=".6" stop-color="#498673"/>
      <stop offset=".6" stop-color="#498772"/>
      <stop offset=".6" stop-color="#4a8872"/>
      <stop offset=".6" stop-color="#4a8872"/>
      <stop offset=".6" stop-color="#4a8971"/>
      <stop offset=".6" stop-color="#4a8971"/>
      <stop offset=".7" stop-color="#4a8a70"/>
      <stop offset=".7" stop-color="#4a8b70"/>
      <stop offset=".7" stop-color="#4b8b6f"/>
      <stop offset=".7" stop-color="#4b8c6f"/>
      <stop offset=".7" stop-color="#4a8d6f"/>
      <stop offset=".7" stop-color="#4a8d6e"/>
      <stop offset=".7" stop-color="#4a8e6e"/>
      <stop offset=".7" stop-color="#4a8e6d"/>
      <stop offset=".7" stop-color="#4a8f6d"/>
      <stop offset=".7" stop-color="#4b906d"/>
      <stop offset=".7" stop-color="#4b906c"/>
      <stop offset=".7" stop-color="#4b916c"/>
      <stop offset=".7" stop-color="#4b926b"/>
      <stop offset=".7" stop-color="#4b926b"/>
      <stop offset=".7" stop-color="#4b936a"/>
      <stop offset=".7" stop-color="#4c946a"/>
      <stop offset=".7" stop-color="#4c946a"/>
      <stop offset=".7" stop-color="#4c9569"/>
      <stop offset=".7" stop-color="#4c9569"/>
      <stop offset=".7" stop-color="#4c9668"/>
      <stop offset=".7" stop-color="#4c9767"/>
      <stop offset=".7" stop-color="#4c9767"/>
      <stop offset=".7" stop-color="#4e9867"/>
      <stop offset=".7" stop-color="#4e9967"/>
      <stop offset=".7" stop-color="#4e9966"/>
      <stop offset=".8" stop-color="#4e9a66"/>
      <stop offset=".8" stop-color="#4e9b65"/>
      <stop offset=".8" stop-color="#4e9b65"/>
      <stop offset=".8" stop-color="#4f9c65"/>
      <stop offset=".8" stop-color="#4f9c64"/>
      <stop offset=".8" stop-color="#4f9d64"/>
      <stop offset=".8" stop-color="#4e9e63"/>
      <stop offset=".8" stop-color="#4e9e63"/>
      <stop offset=".8" stop-color="#4d9f63"/>
      <stop offset=".8" stop-color="#4da062"/>
      <stop offset=".8" stop-color="#4ea062"/>
      <stop offset=".8" stop-color="#4ea160"/>
      <stop offset=".8" stop-color="#4ea160"/>
      <stop offset=".8" stop-color="#4ea260"/>
      <stop offset=".8" stop-color="#4ea360"/>
      <stop offset=".8" stop-color="#4ea360"/>
      <stop offset=".8" stop-color="#50a45e"/>
      <stop offset=".8" stop-color="#50a55e"/>
      <stop offset=".8" stop-color="#50a55d"/>
      <stop offset=".8" stop-color="#50a65e"/>
      <stop offset=".8" stop-color="#50a85e"/>
      <stop offset=".8" stop-color="#50a85d"/>
      <stop offset=".8" stop-color="#50a85d"/>
      <stop offset=".8" stop-color="#51a85c"/>
      <stop offset=".8" stop-color="#51a95c"/>
      <stop offset=".8" stop-color="#52ab5c"/>
      <stop offset=".8" stop-color="#51ab5b"/>
      <stop offset=".8" stop-color="#52ac5b"/>
      <stop offset=".9" stop-color="#52ad5a"/>
      <stop offset=".9" stop-color="#52ad5a"/>
      <stop offset=".9" stop-color="#53ad59"/>
      <stop offset=".9" stop-color="#53af5a"/>
      <stop offset=".9" stop-color="#53af5a"/>
      <stop offset=".9" stop-color="#53af58"/>
      <stop offset=".9" stop-color="#53af58"/>
      <stop offset=".9" stop-color="#53b057"/>
      <stop offset=".9" stop-color="#55b157"/>
      <stop offset=".9" stop-color="#55b157"/>
      <stop offset=".9" stop-color="#56b256"/>
      <stop offset=".9" stop-color="#57b256"/>
      <stop offset=".9" stop-color="#57b255"/>
      <stop offset=".9" stop-color="#57b255"/>
      <stop offset=".9" stop-color="#57b254"/>
      <stop offset=".9" stop-color="#59b255"/>
      <stop offset=".9" stop-color="#59b255"/>
      <stop offset=".9" stop-color="#59b254"/>
      <stop offset=".9" stop-color="#5ab254"/>
      <stop offset=".9" stop-color="#5ab354"/>
      <stop offset=".9" stop-color="#5ab354"/>
      <stop offset=".9" stop-color="#5bb354"/>
      <stop offset=".9" stop-color="#5cb353"/>
      <stop offset=".9" stop-color="#5cb353"/>
      <stop offset=".9" stop-color="#5cb352"/>
      <stop offset=".9" stop-color="#5cb352"/>
      <stop offset="1" stop-color="#5db352"/>
      <stop offset="1" stop-color="#5db352"/>
      <stop offset="1" stop-color="#5eb352"/>
      <stop offset="1" stop-color="#5fb350"/>
      <stop offset="1" stop-color="#5fb350"/>
      <stop offset="1" stop-color="#5fb34f"/>
      <stop offset="1" stop-color="#60b44f"/>
      <stop offset="1" stop-color="#61b44f"/>
      <stop offset="1" stop-color="#61b44e"/>
      <stop offset="1" stop-color="#62b44f"/>
      <stop offset="1" stop-color="#62b44e"/>
      <stop offset="1" stop-color="#63b44e"/>
    </linearGradient>
  </defs>
  <rect class="st4" width="77.5" height="77.5" rx="9" ry="9"/>
  <path class="st5" d="M65.8,38.3c0,.9,0,1.8-.1,2.7,0,.9-.2,1.8-.4,2.7s-.4,1.8-.7,2.6c-.3.9-.6,1.7-.9,2.5-.3.8-.7,1.7-1.2,2.5s-.9,1.6-1.4,2.3c-.5.8-1,1.5-1.6,2.2s-1.2,1.4-1.8,2-1.3,1.2-2,1.8c-.7.6-1.4,1.1-2.2,1.6-.8.5-1.5,1-2.3,1.4s-1.6.8-2.5,1.2-1.7.7-2.5.9c-.9.3-1.7.5-2.6.7-.9.2-1.8.3-2.7.4-.9,0-1.8.1-2.7.1s-1.8,0-2.7-.1-1.8-.2-2.7-.4-1.8-.4-2.6-.7-1.7-.6-2.5-.9-1.6-.7-2.5-1.2-1.6-.9-2.3-1.4c-.8-.5-1.5-1-2.2-1.6s-1.4-1.2-2-1.8c-.6-.6-1.2-1.3-1.8-2s-1.1-1.4-1.6-2.2c-.5-.8-1-1.5-1.4-2.3s-.8-1.6-1.2-2.5c-.3-.8-.6-1.7-.9-2.5s-.5-1.7-.7-2.6-.3-1.8-.4-2.7c0-.9-.1-1.8-.1-2.7s0-1.8.1-2.7.2-1.8.4-2.7c.2-.9.4-1.8.7-2.6.3-.9.6-1.7.9-2.5.4-.8.7-1.6,1.2-2.5s.9-1.6,1.4-2.3c.5-.8,1-1.5,1.6-2.2s1.2-1.4,1.8-2,1.3-1.2,2-1.8,1.4-1.1,2.2-1.6,1.5-1,2.3-1.4c.8-.4,1.6-.8,2.5-1.2.8-.3,1.7-.6,2.5-.9.9-.3,1.7-.5,2.6-.7.9-.2,1.8-.3,2.7-.4s1.8-.1,2.7-.1,1.8,0,2.7.1c.9,0,1.8.2,2.7.4s1.8.4,2.6.7c.9.3,1.7.6,2.5.9.8.4,1.7.7,2.5,1.2.8.4,1.6.9,2.3,1.4s1.5,1,2.2,1.6c.7.6,1.4,1.2,2,1.8s1.2,1.3,1.8,2,1.1,1.4,1.6,2.2c.5.8,1,1.5,1.4,2.3s.8,1.6,1.2,2.5c.3.8.7,1.7.9,2.5.3.9.5,1.7.7,2.6s.3,1.8.4,2.7.1,1.8.1,2.7Z"/>
  <path class="st1" d="M53,23.1c-3.8-3.7-9.1-6-14.9-6-11.8,0-21.4,9.6-21.4,21.4s1.7,9.5,4.5,13.1"/>
  <path class="st1" d="M24.9,55.2c3.6,2.9,8.3,4.6,13.3,4.6s11-2.3,14.9-6.1"/>
  <path class="st1" d="M29,32.7c-1,1.7-1.7,3.7-1.7,5.8,0,6,4.9,10.9,10.9,10.9s5.8-1.2,7.7-3.2"/>
  <path class="st1" d="M45.9,30.8c-2-2-4.7-3.2-7.7-3.2s-4.2.6-5.8,1.7"/>
  <path class="st7" d="M43.4,38.5c0,.7-.1,1.4-.4,2-.3.6-.7,1.2-1.1,1.7-.5.5-1.1.9-1.7,1.1s-1.3.4-2,.4-1.4-.1-2-.4c-.6-.3-1.2-.6-1.7-1.1-.5-.5-.9-1.1-1.1-1.7s-.4-1.3-.4-2,.1-1.4.4-2c.3-.6.6-1.2,1.1-1.7.5-.5,1.1-.9,1.7-1.1s1.3-.4,2-.4,1.4.1,2,.4c.6.3,1.2.7,1.7,1.1s.9,1.1,1.1,1.7c.3.7.4,1.3.4,2Z"/>
  <g class="st6">
    <path class="st2" d="M85.1,73.8h5.6V3.2h-5.6v70.5h0Z"/>
  </g>
  <path class="st3" d="M114.9,57.7c-3.1,0-5.7-.5-7.9-1.6-2.2-1-4.1-2.5-5.5-4.3-1.5-1.8-2.5-3.9-3.2-6.2-.7-2.3-1-4.8-1-7.3s.3-5,1-7.3c.7-2.3,1.8-4.4,3.2-6.2,1.5-1.8,3.3-3.2,5.5-4.2,2.2-1,4.9-1.6,7.9-1.6s5.5.5,7.7,1.5c2.2,1,4,2.4,5.3,4.1,1.3,1.8,2.2,3.8,2.5,6.1h-6.4c-.4-2-1.4-3.6-3.1-4.8-1.7-1.1-3.7-1.7-6.2-1.7s-4.7.6-6.4,1.8c-1.7,1.2-3,2.9-3.9,5-.9,2.1-1.3,4.6-1.3,7.3s.4,5.2,1.3,7.4c.9,2.2,2.2,3.8,3.9,5.1,1.7,1.2,3.9,1.8,6.4,1.8s4.5-.6,6.2-1.8c1.7-1.2,2.7-3,3.1-5.4h6.4c-.6,3.8-2.2,6.8-4.8,9-2.7,2.2-6.2,3.3-10.7,3.3Z"/>
  <path class="st3" d="M153.3,57.2h-6.1v-14.6l-14-23.1h6.8l10.1,17.4,10.2-17.4h6.7l-13.8,23.1v14.6h0Z"/>
  <path class="st3" d="M186.7,57.2h-5.8V24.7h-12.1v-5.2h30.1v5.2h-12.1v32.4Z"/>
  <path class="st3" d="M220.4,57.7c-3.1,0-5.7-.5-7.9-1.6-2.2-1-4.1-2.5-5.6-4.3-1.5-1.8-2.6-3.9-3.3-6.2s-1.1-4.8-1.1-7.3.4-5,1.1-7.4c.7-2.3,1.8-4.4,3.3-6.2,1.5-1.8,3.3-3.2,5.6-4.2,2.2-1,4.9-1.6,7.9-1.6s5.7.5,7.9,1.6c2.2,1,4.1,2.5,5.6,4.2,1.5,1.8,2.6,3.9,3.3,6.2s1.1,4.8,1.1,7.4-.4,5-1.1,7.3-1.8,4.4-3.3,6.2c-1.5,1.8-3.3,3.2-5.6,4.3-2.2,1-4.9,1.6-7.9,1.6ZM220.4,52.5c2.6,0,4.7-.6,6.5-1.8,1.8-1.2,3.1-2.9,4-5,.9-2.1,1.4-4.6,1.4-7.3s-.5-5.2-1.4-7.3c-.9-2.1-2.3-3.8-4-5-1.8-1.2-3.9-1.8-6.5-1.8s-4.7.6-6.5,1.8c-1.8,1.2-3.1,2.9-4,5-.9,2.1-1.4,4.6-1.4,7.3s.5,5.2,1.4,7.3c.9,2.1,2.3,3.8,4,5,1.8,1.2,3.9,1.8,6.5,1.8Z"/>
</svg>